<?xml version="1.0" encoding="utf-8"?>
<!-- Generator: Adobe Illustrator 19.2.1, SVG Export Plug-In . SVG Version: 6.00 Build 0)  -->
<svg version="1.1" id="Layer_1" xmlns="http://www.w3.org/2000/svg" xmlns:xlink="http://www.w3.org/1999/xlink" x="0px" y="0px"
	 viewBox="0 0 768 1024" style="enable-background:new 0 0 768 1024;" xml:space="preserve">
<style type="text/css">
	.st0{fill:#FFFFFF;}
	.st1{fill:none;stroke:#000000;stroke-miterlimit:10;}
</style>
<rect x="35.2" y="61.5" class="st0" width="91.2" height="91.2"/>
<g>
	<path class="st1" d="M126.4,152.7H35.2V61.5h91.2V152.7z M37.2,150.7h87.2V63.5H37.2V150.7z"/>
</g>
<g>
	<path class="st1" d="M79.3,91.7l-3.8,4.7c-1.8-1.5-4-2.4-6.6-2.4c-4.2,0-7.6,3.4-7.6,11.6c0,8,3.2,11.4,7.8,11.4
		c3.3,0,5.3-1.4,7.2-2.9l3.6,4.5c-2.4,2.5-6.1,4.5-11.2,4.5c-9,0-15.5-6.1-15.5-17.5c0-11.1,6.8-17.4,15.6-17.4
		C73.4,88.1,76.5,89.4,79.3,91.7z"/>
	<path class="st1" d="M97.7,95.8c6.5,0,9.4,5.2,9.4,13.5c0,7.9-3.6,13.6-10.2,13.6c-2.5,0-4.8-1.1-6.3-3.1l-0.3,2.3h-6.7V86.6
		l7.6-0.8v13.6C92.8,97.2,95.1,95.8,97.7,95.8z M99.3,109.5c0-6.3-1.6-8-4-8c-1.7,0-3,1.1-4.1,3v10.8c1,1.5,2.1,2.3,3.7,2.3
		C97.6,117.5,99.3,115.2,99.3,109.5z"/>
</g>
</svg>
